<svg width="217" height="86" viewBox="0 0 217 86" fill="none" xmlns="http://www.w3.org/2000/svg">
<g filter="url(#filter0_d_3_19)">
<path d="M21.492 31.246V34H4.428V0.897998H9.936V31.246H21.492ZM49.6395 24.118H36.4635L33.3315 34H30.1995L40.8915 0.897998H47.4795L58.1715 34H52.8255L49.6395 24.118ZM48.7755 21.472L43.0515 3.49L37.3275 21.472H48.7755ZM94.2456 23.038C94.2456 25.81 93.6516 28.078 92.4636 29.842C91.3116 31.57 89.8356 32.812 88.0356 33.568C86.2716 34.288 84.3996 34.648 82.4196 34.648C78.8556 34.648 75.8856 33.766 73.5096 32.002C71.1696 30.202 69.9996 27.214 69.9996 23.038V0.897998H75.5076V23.038C75.5076 26.134 76.1556 28.402 77.4516 29.842C78.7836 31.246 80.5656 31.948 82.7976 31.948C85.1016 31.948 87.0456 31.228 88.6296 29.788C90.2496 28.312 91.0596 26.062 91.0596 23.038V0.897998H94.2456V23.038ZM135.658 34H129.664L113.356 6.352V34H110.116V0.897998H116.002L132.364 28.492V0.897998H135.604V33.946L135.658 34ZM169.929 9.916C169.497 4.984 167.391 2.518 163.611 2.518C161.559 2.518 159.975 3.058 158.859 4.138C157.743 5.218 156.969 6.82 156.537 8.944C156.105 11.068 155.889 13.912 155.889 17.476C155.889 21.004 156.105 23.83 156.537 25.954C156.969 28.042 157.743 29.626 158.859 30.706C159.975 31.786 161.559 32.326 163.611 32.326C165.879 32.326 167.499 31.57 168.471 30.058C169.479 28.51 170.019 26.35 170.091 23.578L174.573 23.74C174.285 27.34 173.349 30.058 171.765 31.894C170.181 33.73 167.463 34.648 163.611 34.648C160.227 34.648 157.563 34 155.619 32.704C153.675 31.372 152.307 29.464 151.515 26.98C150.759 24.496 150.381 21.328 150.381 17.476C150.381 13.624 150.759 10.456 151.515 7.972C152.307 5.452 153.657 3.544 155.565 2.248C157.509 0.916 160.191 0.25 163.611 0.25C167.247 0.25 169.857 1.006 171.441 2.518C173.025 3.994 173.997 6.19 174.357 9.106L169.929 9.916ZM212.389 0.897998V34H206.827V18.826H193.705V34H188.197V0.897998H193.705V16.072H206.827V0.897998H212.389ZM56.5537 52.48L48.9537 77H44.1937L36.5537 52.48H40.6337L47.3537 75.16L54.0738 52.48H56.5537ZM69.9703 77H65.8903V52.48H69.9703V77ZM89.1553 52C91.662 52 93.5953 52.6 94.9553 53.8C96.3153 54.9733 97.1553 56.7867 97.4753 59.24L94.1553 59.68C94.022 57.76 93.5153 56.28 92.6353 55.24C91.782 54.2 90.622 53.68 89.1553 53.68C87.582 53.68 86.3686 54.0667 85.5153 54.84C84.6886 55.5867 84.2753 56.6533 84.2753 58.04C84.2753 59.32 84.6086 60.2933 85.2753 60.96C85.9686 61.6 87.1953 62.1467 88.9553 62.6L91.1553 63.16C93.5286 63.8267 95.2086 64.7067 96.1953 65.8C97.182 66.8933 97.6753 68.4133 97.6753 70.36C97.6753 72.6533 96.9286 74.4133 95.4353 75.64C93.942 76.8667 91.8086 77.48 89.0353 77.48C86.3953 77.48 84.3686 76.8933 82.9553 75.72C81.5686 74.52 80.7286 72.6933 80.4353 70.24L83.6753 69.76C83.8886 71.68 84.4486 73.16 85.3553 74.2C86.262 75.24 87.4886 75.76 89.0353 75.76C92.502 75.76 94.2353 74.2933 94.2353 71.36C94.2353 70.48 94.0886 69.7733 93.7953 69.24C93.502 68.7067 93.0086 68.2667 92.3153 67.92C91.6486 67.5467 90.662 67.2 89.3553 66.88L87.3153 66.36C84.942 65.7467 83.2753 64.8933 82.3153 63.8C81.382 62.68 80.9153 61.1067 80.9153 59.08C80.9153 56.76 81.6086 55 82.9953 53.8C84.4086 52.6 86.462 52 89.1553 52ZM112.264 77H108.184V52.48H112.264V77ZM133.049 77.48C129.689 77.48 127.196 76.4533 125.569 74.4C123.969 72.32 123.169 69.1067 123.169 64.76C123.169 60.36 123.969 57.1333 125.569 55.08C127.169 53.0267 129.662 52 133.049 52C136.462 52 138.969 53.04 140.569 55.12C142.169 57.1733 142.969 60.3867 142.969 64.76C142.969 69.1067 142.156 72.32 140.529 74.4C138.929 76.4533 136.436 77.48 133.049 77.48ZM133.049 75.76C135.022 75.76 136.489 74.8667 137.449 73.08C138.409 71.2667 138.889 68.4933 138.889 64.76C138.889 60.9733 138.409 58.1867 137.449 56.4C136.489 54.5867 135.022 53.68 133.049 53.68C131.076 53.68 129.609 54.5733 128.649 56.36C127.716 58.1467 127.249 60.9467 127.249 64.76C127.249 68.5467 127.716 71.3333 128.649 73.12C129.609 74.88 131.076 75.76 133.049 75.76ZM172.994 77H168.554L156.474 56.52V77H154.074V52.48H158.434L170.554 72.92V52.48H172.954V76.96L172.994 77Z" fill="white"/>
</g>
<defs>
<filter id="filter0_d_3_19" x="0.427979" y="0.25" width="215.961" height="85.23" filterUnits="userSpaceOnUse" color-interpolation-filters="sRGB">
<feFlood flood-opacity="0" result="BackgroundImageFix"/>
<feColorMatrix in="SourceAlpha" type="matrix" values="0 0 0 0 0 0 0 0 0 0 0 0 0 0 0 0 0 0 127 0" result="hardAlpha"/>
<feOffset dy="4"/>
<feGaussianBlur stdDeviation="2"/>
<feComposite in2="hardAlpha" operator="out"/>
<feColorMatrix type="matrix" values="0 0 0 0 0 0 0 0 0 0 0 0 0 0 0 0 0 0 0.25 0"/>
<feBlend mode="normal" in2="BackgroundImageFix" result="effect1_dropShadow_3_19"/>
<feBlend mode="normal" in="SourceGraphic" in2="effect1_dropShadow_3_19" result="shape"/>
</filter>
</defs>
</svg>
